<svg width="200" height="200" viewBox="0 0 200 200" fill="none" xmlns="http://www.w3.org/2000/svg">
<ellipse cx="100" cy="175" rx="100" ry="25" fill="#C4C4C4"/>
<mask id="mask0" mask-type="alpha" maskUnits="userSpaceOnUse" x="0" y="150" width="200" height="50">
<ellipse cx="100" cy="175" rx="100" ry="25" fill="#C4C4C4"/>
</mask>
<g mask="url(#mask0)">
<ellipse cx="100" cy="187" rx="100" ry="25" fill="black"/>
</g>
<mask id="mask1" mask-type="alpha" maskUnits="userSpaceOnUse" x="0" y="0" width="200" height="200">
<path d="M200 0H0V175.58C0 188.764 44.7715 200 100 200C155.228 200 200 188.751 200 175.58V0Z" fill="#2896FB"/>
</mask>
<g mask="url(#mask1)">
<path d="M100.5 16C53.5558 16 15.5 54.0558 15.5 101V266H185.5V101C185.5 54.0558 147.444 16 100.5 16Z" fill="#C4C4C4"/>
<path d="M68.2872 22.3162C78.222 18.2447 89.0989 16 100.5 16C147.444 16 185.5 54.0558 185.5 101V266H15.5V101C15.5 77.2309 25.2562 55.7405 40.9826 40.3149C39.7451 39.0121 39 37.3328 39 35.5C39 31.3579 42.8056 28 47.5 28C48.4021 28 49.2714 28.124 50.0872 28.3537C51.3734 22.0787 56.7717 17.8064 62.349 18.748C64.7464 19.1528 66.7962 20.4567 68.2872 22.3162Z" fill="#C4C4C4"/>
<path d="M68.2872 22.3162C78.222 18.2447 89.0989 16 100.5 16C147.444 16 185.5 54.0558 185.5 101V266H15.5V101C15.5 77.2309 25.2562 55.7405 40.9826 40.3149C39.7451 39.0121 39 37.3328 39 35.5C39 31.3579 42.8056 28 47.5 28C48.4021 28 49.2714 28.124 50.0872 28.3537C51.3734 22.0787 56.7717 17.8064 62.349 18.748C64.7464 19.1528 66.7962 20.4567 68.2872 22.3162Z" fill="url(#paint0_radial)"/>
<path class="st0" d="M15.5,23.2c-0.4,0-0.5-0.2-0.3-0.5l2.1-2.7c0.2-0.3,0.7-0.5,1.1-0.5h35.7c0.4,0,0.5,0.3,0.3,0.6l-1.7,2.6      c-0.2,0.3-0.7,0.6-1,0.6L15.5,23.2z"/>

<rect x="45.5" y="155" width="110" height="123" rx="55" fill="#F3ECEC">
</rect>
<circle cx="53" cy="84" r="7" fill="#323232"/>
<circle cx="148" cy="84" r="7" fill="#323232"/>
<path d="M47.3431 78.3431C47.7337 77.9526 48.3668 77.9526 48.7574 78.3431L58.6569 88.2426C59.0474 88.6332 59.0474 89.2663 58.6569 89.6569C58.2663 90.0474 57.6332 90.0474 57.2426 89.6569L47.3431 79.7574C46.9526 79.3668 46.9526 78.7337 47.3431 78.3431Z" fill="black"/>
<path d="M58.6569 78.3431C59.0474 78.7337 59.0474 79.3668 58.6569 79.7574L48.7574 89.6569C48.3668 90.0474 47.7337 90.0474 47.3431 89.6569C46.9526 89.2663 46.9526 88.6332 47.3431 88.2426L57.2426 78.3431C57.6332 77.9526 58.2663 77.9526 58.6569 78.3431Z" fill="black"/>
<path d="M153.657 78.3431C154.047 78.7337 154.047 79.3668 153.657 79.7573L143.757 89.6568C143.367 90.0474 142.734 90.0474 142.343 89.6568C141.953 89.2663 141.953 88.6332 142.343 88.2426L152.243 78.3431C152.633 77.9526 153.266 77.9526 153.657 78.3431Z" fill="black"/>
<path d="M153.657 89.6568C153.266 90.0474 152.633 90.0474 152.243 89.6568L142.343 79.7573C141.953 79.3668 141.953 78.7337 142.343 78.3431C142.734 77.9526 143.367 77.9526 143.757 78.3431L153.657 88.2426C154.047 88.6332 154.047 89.2663 153.657 89.6568Z" fill="black"/>
<mask id="mask2" mask-type="alpha" maskUnits="userSpaceOnUse" x="60" y="82" width="81" height="50">
<ellipse cx="100.5" cy="107" rx="40" ry="25" fill="#F3ECEC"/>
</mask>
<g mask="url(#mask2)">
<ellipse cx="100.5" cy="107" rx="40" ry="25" fill="#E2E0E0"/>
<ellipse cx="100.5" cy="103" rx="40" ry="25" fill="#F3ECEC"/>
</g>
<line x1="32.0512" y1="101.054" x2="68.0539" y2="102.949" stroke="#9E9E9E" stroke-width="2" stroke-linecap="round"/>
<line x1="133.631" y1="111.151" x2="166.651" y2="115.869" stroke="#9E9E9E" stroke-width="2" stroke-linecap="round"/>
<line x1="68.6705" y1="108.145" x2="33.1454" y2="113.829" stroke="#9E9E9E" stroke-width="2" stroke-linecap="round"/>
<line x1="167.029" y1="102.028" x2="133.528" y2="102.971" stroke="#9E9E9E" stroke-width="2" stroke-linecap="round"/>
<ellipse cx="100.5" cy="91" rx="10" ry="6" fill="#FFC6C6"/>
<circle cx="53" cy="84" r="12" fill="#EBFCF9" fill-opacity="0.5" stroke="black" stroke-width="4"/>
<circle cx="148" cy="84" r="12" fill="#EBFCF9" fill-opacity="0.5" stroke="black" stroke-width="4"/>
<path d="M65 84C65 84 79 78 101.5 78C124 78 136 84 136 84" stroke="black" stroke-width="4"/>
<mask id="mask3" mask-type="alpha" maskUnits="userSpaceOnUse" x="43" y="74" width="20" height="20">
<circle cx="53" cy="84" r="10" fill="#C4C4C4"/>
</mask>
<g mask="url(#mask3)">
<rect x="57.0061" y="56" width="4.7221" height="54" transform="rotate(26.395 57.0061 56)" fill="#F12E2E"/>
<rect x="62.0061" y="59" width="2.40476" height="54" transform="rotate(26.395 62.0061 59)" fill="#F12E2E"/>
</g>
</g>
<g>
    <g>
        <g>

        </g>
    </g>
</g>
<g>
    <g>
        <g>
            <path class="st0" d="M0.4,32.4c-0.4,0-0.5-0.2-0.3-0.5l2.1-2.7c0.2-0.3,0.7-0.5,1.1-0.5h45.6c0.4,0,0.6,0.3,0.5,0.6l-0.8,2.4      c-0.1,0.4-0.5,0.6-0.9,0.6L0.4,32.4z"/>
        </g>
    </g>
</g>
<g>
    <g>
        <g>
            <path class="st0" d="M24.6,41.6c-0.4,0-0.5-0.3-0.3-0.6l1.4-2.5c0.2-0.3,0.6-0.6,1-0.6h20c0.4,0,0.6,0.3,0.6,0.7L47.1,41      c0,0.4-0.4,0.7-0.7,0.7L24.6,41.6z"/>
        </g>
    </g>
</g>
<g>
    <g id="CXHf1q_3_">
        <g>
            <g>
                <path class="st0" d="M128.4,21.4c-6.3,1.6-10.6,2.8-16.8,4.4c-1.5,0.4-1.6,0.5-2.9-1c-1.5-1.7-2.6-2.8-4.7-3.8       c-6.3-3.1-12.4-2.2-18.1,1.5c-6.8,4.4-10.3,10.9-10.2,19c0.1,8,5.6,14.6,13.5,15.7c6.8,0.9,12.5-1.5,17-6.6       c0.9-1.1,1.7-2.3,2.7-3.7c-3.6,0-8.1,0-19.3,0c-2.1,0-2.6-1.3-1.9-3c1.3-3.1,3.7-8.3,5.1-10.9c0.3-0.6,1-1.6,2.5-1.6       c5.1,0,23.9,0,36.4,0c-0.2,2.7-0.2,5.4-0.6,8.1c-1.1,7.2-3.8,13.8-8.2,19.6c-7.2,9.5-16.6,15.4-28.5,17       c-9.8,1.3-18.9-0.6-26.9-6.6c-7.4-5.6-11.6-13-12.7-22.2c-1.3-10.9,1.9-20.7,8.5-29.3c7.1-9.3,16.5-15.2,28-17.3       c9.4-1.7,18.4-0.6,26.5,4.9c5.3,3.5,9.1,8.3,11.6,14.1C130,20.6,129.6,21.1,128.4,21.4z"/>
            </g>
            <g>
                <path class="st0" d="M161.5,76.7c-9.1-0.2-17.4-2.8-24.4-8.8c-5.9-5.1-9.6-11.6-10.8-19.3c-1.8-11.3,1.3-21.3,8.1-30.2       c7.3-9.6,16.1-14.6,28-16.7c10.2-1.8,19.8-0.8,28.5,5.1c7.9,5.4,12.8,12.7,14.1,22.3c1.7,13.5-2.2,24.5-11.5,33.9       c-6.6,6.7-14.7,10.9-24,12.8C166.8,76.3,164.1,76.4,161.5,76.7z M185.3,36.3c-0.1-1.3-0.1-2.3-0.3-3.3       c-1.8-9.9-10.9-15.5-20.4-13.3c-9.3,2.1-15.3,8-17.5,17.4c-1.8,7.8,2,15.7,9.2,18.9c5.5,2.4,11,2.1,16.3-0.6       C180.5,51.3,184.8,44.9,185.3,36.3z"/>
            </g>
        </g>
    </g>
</g>
<defs>
<radialGradient id="paint0_radial" cx="0" cy="0" r="1" gradientUnits="userSpaceOnUse" gradientTransform="translate(101 137) rotate(90) scale(115 90.9302)">
<stop stop-color="white" stop-opacity="0"/>
<stop offset="1" stop-color="#9E9E9E"/>
</radialGradient>
</defs>
</svg>

